<?xml version="1.0" encoding="UTF-8" standalone="no"?>
<!-- Created with Inkscape (http://www.inkscape.org/) -->

<svg
   xmlns:dc="http://purl.org/dc/elements/1.1/"
   xmlns:cc="http://creativecommons.org/ns#"
   xmlns:rdf="http://www.w3.org/1999/02/22-rdf-syntax-ns#"
   xmlns:svg="http://www.w3.org/2000/svg"
   xmlns="http://www.w3.org/2000/svg"
   xmlns:sodipodi="http://sodipodi.sourceforge.net/DTD/sodipodi-0.dtd"
   xmlns:inkscape="http://www.inkscape.org/namespaces/inkscape"
   width="999.99994"
   height="524.24188"
   viewBox="0 0 264.58331 138.70567"
   version="1.1"
   id="svg8"
   inkscape:version="0.92.4 (5da689c313, 2019-01-14)"
   sodipodi:docname="A.svg">
  <defs
     id="defs2">
    <clipPath
       clipPathUnits="userSpaceOnUse"
       id="clipPath357">
      <path
         d="M 918.864,36 H 1008 v 46.734 h -89.136 z"
         id="path355"
         inkscape:connector-curvature="0" />
    </clipPath>
    <clipPath
       clipPathUnits="userSpaceOnUse"
       id="clipPath251">
      <path
         d="M 918.864,36 H 1008 v 46.734 h -89.136 z"
         id="path249"
         inkscape:connector-curvature="0" />
    </clipPath>
    <clipPath
       clipPathUnits="userSpaceOnUse"
       id="clipPath239">
      <path
         d="M 918.869,36 H 1008 v 46.734 h -89.131 z"
         id="path237"
         inkscape:connector-curvature="0" />
    </clipPath>
    <clipPath
       clipPathUnits="userSpaceOnUse"
       id="clipPath175">
      <path
         d="M 918.864,36 H 1008 v 46.734 h -89.136 z"
         id="path173"
         inkscape:connector-curvature="0" />
    </clipPath>
    <clipPath
       clipPathUnits="userSpaceOnUse"
       id="clipPath163">
      <path
         d="M 918.869,36 H 1008 v 46.734 h -89.131 z"
         id="path161"
         inkscape:connector-curvature="0" />
    </clipPath>
  </defs>
  <sodipodi:namedview
     id="base"
     pagecolor="#ffffff"
     bordercolor="#666666"
     borderopacity="1.0"
     inkscape:pageopacity="0.82352941"
     inkscape:pageshadow="2"
     inkscape:zoom="0.49497475"
     inkscape:cx="187.54568"
     inkscape:cy="132.80108"
     inkscape:document-units="px"
     inkscape:current-layer="layer1"
     showgrid="false"
     units="px"
     inkscape:window-width="1920"
     inkscape:window-height="1017"
     inkscape:window-x="1912"
     inkscape:window-y="-8"
     inkscape:window-maximized="1"
     inkscape:pagecheckerboard="true"
     fit-margin-top="0"
     fit-margin-left="0"
     fit-margin-right="0"
     fit-margin-bottom="0" />
  <metadata
     id="metadata5">
    <rdf:RDF>
      <cc:Work
         rdf:about="">
        <dc:format>image/svg+xml</dc:format>
        <dc:type
           rdf:resource="http://purl.org/dc/dcmitype/StillImage" />
        <dc:title></dc:title>
      </cc:Work>
    </rdf:RDF>
  </metadata>
  <g
     inkscape:label="Layer 1"
     inkscape:groupmode="layer"
     id="layer1"
     transform="translate(-12.611612,-55.885278)">
    <g
       id="g133"
       transform="matrix(2.9689985,0,0,-2.9689985,153.36077,169.82683)"
       style="fill:#6d6e71;fill-opacity:1">
      <path
         d="M 0,0 C -0.75,2.668 -1.584,5.336 -2.48,7.941 H -2.564 C -3.439,5.336 -4.272,2.668 -5.023,0 Z m -3.231,8.921 h 1.438 C -0.625,5.856 1.146,-0.063 2.293,-4.502 H 1.188 L 0.25,-0.959 h -5.544 l -0.938,-3.543 h -1.084 c 1.147,4.439 2.918,10.358 4.085,13.423"
         style="fill:#6d6e71;fill-opacity:1;fill-rule:nonzero;stroke:none"
         id="path135"
         inkscape:connector-curvature="0" />
    </g>
    <g
       id="g137"
       transform="matrix(2.9689985,0,0,-2.9689985,153.36077,169.82683)"
       style="fill:#6d6e71;fill-opacity:1">
      <path
         d="M 0,0 C -0.75,2.668 -1.584,5.336 -2.48,7.941 H -2.564 C -3.439,5.336 -4.272,2.668 -5.023,0 Z m -3.231,8.921 h 1.438 C -0.625,5.856 1.146,-0.063 2.293,-4.502 H 1.188 L 0.25,-0.959 h -5.544 l -0.938,-3.543 h -1.084 c 1.147,4.439 2.918,10.358 4.085,13.423"
         style="fill:#6d6e71;fill-opacity:1;stroke:#ffffff;stroke-width:0.092;stroke-linecap:butt;stroke-linejoin:miter;stroke-miterlimit:10;stroke-dasharray:none;stroke-opacity:1"
         id="path139"
         inkscape:connector-curvature="0" />
    </g>
    <g
       id="g141"
       transform="matrix(2.9689985,0,0,-2.9689985,153.36077,169.82683)"
       style="fill:#6d6e71;fill-opacity:1">
      <path
         d="M 0,0 C -0.75,2.668 -1.584,5.336 -2.48,7.941 H -2.564 C -3.439,5.336 -4.272,2.668 -5.023,0 Z m -3.231,8.921 h 1.438 C -0.625,5.856 1.146,-0.063 2.293,-4.502 H 1.188 L 0.25,-0.959 h -5.544 l -0.938,-3.543 h -1.084 c 1.147,4.439 2.918,10.358 4.085,13.423"
         style="fill:#6d6e71;fill-opacity:1;fill-rule:nonzero;stroke:none"
         id="path143"
         inkscape:connector-curvature="0" />
    </g>
    <path
       d="m 165.19765,154.60386 h 3.0937 v 28.58851 h -3.0937 z m 0,-11.26136 h 3.0937 v 4.82754 h -3.0937 z"
       style="fill:#6d6e71;fill-opacity:1;fill-rule:nonzero;stroke:#ffffff;stroke-width:0.27314782;stroke-linecap:butt;stroke-linejoin:miter;stroke-miterlimit:10;stroke-dasharray:none;stroke-opacity:1"
       id="path149"
       inkscape:connector-curvature="0" />
    <g
       id="g153"
       transform="matrix(2.9689985,0,0,-2.9689985,202.12368,181.21266)"
       style="fill:#6d6e71;fill-opacity:1">
      <path
         d="m 0,0 c 2.251,0 2.793,1.688 2.793,4.085 0,2.96 -0.813,4.189 -2.481,4.189 -0.771,0 -1.626,-0.291 -2.396,-0.833 V 0.292 C -1.355,0.125 -0.584,0 0,0 M -2.084,-4.46 H -3.127 V 8.962 h 0.855 l 0.104,-0.73 c 0.709,0.563 1.563,0.939 2.626,0.939 2.251,0 3.398,-1.647 3.398,-5.065 0,-3.272 -1.043,-4.981 -3.856,-4.981 -0.709,0 -1.376,0.104 -2.084,0.271 z"
         style="fill:#6d6e71;fill-opacity:1;fill-rule:nonzero;stroke:none"
         id="path155"
         inkscape:connector-curvature="0" />
    </g>
    <g
       transform="matrix(2.9689985,0,0,-2.9689985,-2715.4939,301.52477)"
       id="g157"
       style="fill:#6d6e71;fill-opacity:1">
      <g
         id="g159"
         clip-path="url(#clipPath163)"
         style="fill:#6d6e71;fill-opacity:1">
        <g
           id="g165"
           transform="translate(982.6942,40.5228)"
           style="fill:#6d6e71;fill-opacity:1">
          <path
             d="m 0,0 c 2.251,0 2.793,1.688 2.793,4.085 0,2.96 -0.813,4.189 -2.481,4.189 -0.771,0 -1.626,-0.291 -2.396,-0.833 V 0.292 C -1.355,0.125 -0.584,0 0,0 M -2.084,-4.46 H -3.127 V 8.962 h 0.855 l 0.104,-0.73 c 0.709,0.563 1.563,0.939 2.626,0.939 2.251,0 3.398,-1.647 3.398,-5.065 0,-3.272 -1.043,-4.981 -3.856,-4.981 -0.709,0 -1.376,0.104 -2.084,0.271 z"
             style="fill:#6d6e71;fill-opacity:1;stroke:#ffffff;stroke-width:0.092;stroke-linecap:butt;stroke-linejoin:miter;stroke-miterlimit:10;stroke-dasharray:none;stroke-opacity:1"
             id="path167"
             inkscape:connector-curvature="0" />
        </g>
      </g>
    </g>
    <g
       transform="matrix(2.9689985,0,0,-2.9689985,-2715.4939,301.52477)"
       id="g169"
       style="fill:#6d6e71;fill-opacity:1">
      <g
         id="g171"
         clip-path="url(#clipPath175)"
         style="fill:#6d6e71;fill-opacity:1">
        <g
           id="g177"
           transform="translate(982.6942,40.5228)"
           style="fill:#6d6e71;fill-opacity:1">
          <path
             d="m 0,0 c 2.251,0 2.793,1.688 2.793,4.085 0,2.96 -0.813,4.189 -2.481,4.189 -0.771,0 -1.626,-0.291 -2.396,-0.833 V 0.292 C -1.355,0.125 -0.584,0 0,0 M -2.084,-4.46 H -3.127 V 8.962 h 0.855 l 0.104,-0.73 c 0.709,0.563 1.563,0.939 2.626,0.939 2.251,0 3.398,-1.647 3.398,-5.065 0,-3.272 -1.043,-4.981 -3.856,-4.981 -0.709,0 -1.376,0.104 -2.084,0.271 z"
             style="fill:#6d6e71;fill-opacity:1;fill-rule:nonzero;stroke:none"
             id="path179"
             inkscape:connector-curvature="0" />
        </g>
      </g>
    </g>
    <g
       id="g201"
       transform="matrix(2.9689985,0,0,-2.9689985,230.27491,181.08945)"
       style="fill:#6d6e71;fill-opacity:1">
      <path
         d="M 0,0 C 2.147,0 2.834,1.73 2.834,4.106 2.834,6.482 2.147,8.212 0,8.212 -2.147,8.212 -2.834,6.482 -2.834,4.106 -2.834,1.73 -2.147,0 0,0 m 0,9.129 c 2.814,0 3.897,-2.001 3.897,-5.023 0,-3.001 -1.083,-5.023 -3.897,-5.023 -2.793,0 -3.898,2.022 -3.898,5.023 0,3.022 1.105,5.023 3.898,5.023"
         style="fill:#6d6e71;fill-opacity:1;fill-rule:nonzero;stroke:#ffffff;stroke-width:0.092;stroke-linecap:butt;stroke-linejoin:miter;stroke-miterlimit:10;stroke-dasharray:none;stroke-opacity:1"
         id="path203"
         inkscape:connector-curvature="0" />
    </g>
    <g
       id="g205"
       transform="matrix(2.9689985,0,0,-2.9689985,230.27491,181.08945)"
       style="fill:#6d6e71;fill-opacity:1">
      <path
         d="M 0,0 C 2.147,0 2.834,1.73 2.834,4.106 2.834,6.482 2.147,8.212 0,8.212 -2.147,8.212 -2.834,6.482 -2.834,4.106 -2.834,1.73 -2.147,0 0,0 m 0,9.129 c 2.814,0 3.897,-2.001 3.897,-5.023 0,-3.001 -1.083,-5.023 -3.897,-5.023 -2.793,0 -3.898,2.022 -3.898,5.023 0,3.022 1.105,5.023 3.898,5.023"
         style="fill:#6d6e71;fill-opacity:1;fill-rule:nonzero;stroke:none"
         id="path207"
         inkscape:connector-curvature="0" />
    </g>
    <g
       id="g213"
       transform="matrix(2.9689985,0,0,-2.9689985,247.77135,154.60453)"
       style="fill:#6d6e71;fill-opacity:1">
      <path
         d="m 0,0 h 0.854 l 0.105,-1.084 c 0.792,0.813 1.646,1.293 2.709,1.293 0.292,0 0.057,0 0.292,0 L 3.856,-0.792 H 3.606 C 2.584,-0.792 1.688,-1.25 1.042,-1.98 V -9.629 H 0 Z"
         style="fill:#6d6e71;fill-opacity:1;fill-rule:nonzero;stroke:none"
         id="path215"
         inkscape:connector-curvature="0" />
    </g>
    <g
       id="g217"
       transform="matrix(2.9689985,0,0,-2.9689985,247.77135,154.60453)"
       style="fill:#6d6e71;fill-opacity:1">
      <path
         d="m 0,0 h 0.854 l 0.105,-1.084 c 0.792,0.813 1.646,1.293 2.709,1.293 0.292,0 0.057,0 0.292,0 L 3.856,-0.792 H 3.606 C 2.584,-0.792 1.688,-1.25 1.042,-1.98 V -9.629 H 0 Z"
         style="fill:#6d6e71;fill-opacity:1;stroke:#ffffff;stroke-width:0.092;stroke-linecap:butt;stroke-linejoin:miter;stroke-miterlimit:10;stroke-dasharray:none;stroke-opacity:1"
         id="path219"
         inkscape:connector-curvature="0" />
    </g>
    <g
       id="g221"
       transform="matrix(2.9689985,0,0,-2.9689985,247.77135,154.60453)"
       style="fill:#6d6e71;fill-opacity:1">
      <path
         d="m 0,0 h 0.854 l 0.105,-1.084 c 0.792,0.813 1.646,1.293 2.709,1.293 0.292,0 0.057,0 0.292,0 L 3.856,-0.792 H 3.606 C 2.584,-0.792 1.688,-1.25 1.042,-1.98 V -9.629 H 0 Z"
         style="fill:#6d6e71;fill-opacity:1;fill-rule:nonzero;stroke:none"
         id="path223"
         inkscape:connector-curvature="0" />
    </g>
    <g
       id="g229"
       transform="matrix(2.9689985,0,0,-2.9689985,265.64101,157.14181)"
       style="fill:#6d6e71;fill-opacity:1">
      <path
         d="M 0,0 H -1.271 V 0.73 L 0.042,0.813 0.146,3.731 H 1.042 V 0.855 H 3.669 V 0 H 1.042 v -6.357 c 0,-1.105 0.271,-1.709 1.147,-1.709 0.395,0 0.833,0.105 1.354,0.334 L 3.835,-8.587 C 3.376,-8.816 2.813,-8.983 2.168,-8.983 0.771,-8.983 0,-8.253 0,-6.44 Z"
         style="fill:#6d6e71;fill-opacity:1;fill-rule:nonzero;stroke:none"
         id="path231"
         inkscape:connector-curvature="0" />
    </g>
    <g
       transform="matrix(2.9689985,0,0,-2.9689985,-2715.4939,301.52477)"
       id="g233"
       style="fill:#6d6e71;fill-opacity:1">
      <g
         id="g235"
         clip-path="url(#clipPath239)"
         style="fill:#6d6e71;fill-opacity:1">
        <g
           id="g241"
           transform="translate(1004.0877,48.6302)"
           style="fill:#6d6e71;fill-opacity:1">
          <path
             d="M 0,0 H -1.271 V 0.73 L 0.042,0.813 0.146,3.731 H 1.042 V 0.855 H 3.669 V 0 H 1.042 v -6.357 c 0,-1.105 0.271,-1.709 1.147,-1.709 0.395,0 0.833,0.105 1.354,0.334 L 3.835,-8.587 C 3.376,-8.816 2.813,-8.983 2.168,-8.983 0.771,-8.983 0,-8.253 0,-6.44 Z"
             style="fill:#6d6e71;fill-opacity:1;stroke:#ffffff;stroke-width:0.092;stroke-linecap:butt;stroke-linejoin:miter;stroke-miterlimit:10;stroke-dasharray:none;stroke-opacity:1"
             id="path243"
             inkscape:connector-curvature="0" />
        </g>
      </g>
    </g>
    <g
       transform="matrix(2.9689985,0,0,-2.9689985,-2715.4939,301.52477)"
       id="g245"
       style="fill:#6d6e71;fill-opacity:1">
      <g
         id="g247"
         clip-path="url(#clipPath251)"
         style="fill:#6d6e71;fill-opacity:1">
        <g
           id="g253"
           transform="translate(1004.0877,48.6302)"
           style="fill:#6d6e71;fill-opacity:1">
          <path
             d="M 0,0 H -1.271 V 0.73 L 0.042,0.813 0.146,3.731 H 1.042 V 0.855 H 3.669 V 0 H 1.042 v -6.357 c 0,-1.105 0.271,-1.709 1.147,-1.709 0.395,0 0.833,0.105 1.354,0.334 L 3.835,-8.587 C 3.376,-8.816 2.813,-8.983 2.168,-8.983 0.771,-8.983 0,-8.253 0,-6.44 Z"
             style="fill:#6d6e71;fill-opacity:1;fill-rule:nonzero;stroke:none"
             id="path255"
             inkscape:connector-curvature="0" />
        </g>
      </g>
    </g>
    <path
       inkscape:connector-curvature="0"
       id="path279"
       style="fill:#6d6e71;fill-opacity:1;fill-rule:nonzero;stroke:none;stroke-width:2.96899819"
       d="m 13.698268,118.63001 h 25.099911 v 4.03188 H 18.288336 v 14.07905 h 14.162123 v 3.97247 H 18.288336 v 17.86451 h -4.590068 z" />
    <path
       inkscape:connector-curvature="0"
       id="path283"
       style="fill:#6d6e71;fill-opacity:1;fill-rule:nonzero;stroke:none;stroke-width:2.96899819"
       d="m 53.899989,155.16589 c 8.247881,0 12.40448,-4.83941 12.40448,-16.56104 0,-11.72458 -4.156599,-16.56407 -12.40448,-16.56407 -8.250843,0 -12.407442,4.83949 -12.407442,16.56407 0,11.72163 4.156599,16.56104 12.407442,16.56104 m 0,-37.15699 c 11.537533,0 17.059865,6.88509 17.059865,20.59595 0,13.70791 -5.522332,20.593 -17.059865,20.593 -11.537525,0 -17.059865,-6.88509 -17.059865,-20.593 0,-13.71086 5.52234,-20.59595 17.059865,-20.59595" />
    <path
       inkscape:connector-curvature="0"
       id="path287"
       style="fill:#6d6e71;fill-opacity:1;fill-rule:nonzero;stroke:none;stroke-width:2.96899819"
       d="m 86.504643,137.92138 c 6.389278,0 10.729953,-1.54982 10.729953,-8.00148 0,-6.26753 -4.094244,-7.81734 -10.421177,-7.81734 -1.858594,0 -4.403029,0.12455 -6.698063,0.31139 v 15.19536 c 2.35738,0.24912 4.961199,0.3114 6.389287,0.3114 M 75.52528,118.87752 c 3.536082,-0.43342 7.755027,-0.86988 11.288139,-0.86988 8.624938,0 15.073601,2.60679 15.073601,11.78694 0,6.94746 -3.844853,10.17173 -9.239521,11.35049 2.853204,5.58464 6.448662,11.35343 10.296481,17.30628 l -0.0623,0.12455 h -5.335356 c -3.536075,-5.51942 -6.885111,-11.2882 -9.800661,-16.81048 -3.227306,0 -5.335293,-0.12204 -7.630327,-0.37115 v 17.18155 H 75.52528 Z" />
    <path
       inkscape:connector-curvature="0"
       id="path291"
       style="fill:#6d6e71;fill-opacity:1;fill-rule:nonzero;stroke:none;stroke-width:2.96899819"
       d="m 116.34545,155.10386 c 10.23414,0 15.0736,-3.90716 15.0736,-16.31462 0,-12.28273 -4.77711,-16.74812 -14.64013,-16.74812 -2.17033,0 -4.71477,0.24659 -6.26458,0.43343 v 32.37986 c 2.04861,0.18683 4.34364,0.24911 5.83111,0.24911 m -10.42119,-36.04068 c 3.10261,-0.55798 7.31859,-1.05394 11.04171,-1.05394 12.71622,0 19.10551,6.26458 19.10551,20.78001 0,14.32834 -6.20224,20.34658 -19.60133,20.34658 -2.85321,0 -7.31858,-0.24912 -10.54589,-0.68254 z" />
    <path
       d="m 140.43026,119.49551 h 1.60029 v 19.80619 h -1.60029 z"
       style="fill:#6d6e71;fill-opacity:1;fill-rule:nonzero;stroke:none;stroke-width:2.96899819"
       id="path293"
       inkscape:connector-curvature="0" />
    <path
       inkscape:connector-curvature="0"
       id="path297"
       style="fill:#6d6e71;fill-opacity:1;fill-rule:nonzero;stroke:none;stroke-width:2.96899819"
       d="m 147.025,125.09202 h 1.26183 l 0.1217,1.3836 c 1.10744,-0.79868 2.61272,-1.69238 4.49209,-1.69238 2.30395,0 4.15067,1.26182 4.15067,4.52178 v 9.99668 h -1.53794 v -9.81254 c 0,-2.4287 -1.13713,-3.35203 -2.79977,-3.35203 -1.50528,0 -3.07589,0.79868 -4.15066,1.56766 v 11.59691 h -1.53794 z" />
    <path
       inkscape:connector-curvature="0"
       id="path301"
       style="fill:#6d6e71;fill-opacity:1;fill-rule:nonzero;stroke:none;stroke-width:2.96899819"
       d="m 161.46176,126.353 h -1.8764 v -1.07776 l 1.93874,-0.12203 0.15435,-4.30507 h 1.32121 v 4.24271 h 3.87454 v 1.26182 h -3.87454 v 9.3791 c 0,1.62994 0.40085,2.52364 1.69232,2.52364 0.58492,0 1.22917,-0.15401 1.99814,-0.49318 l 0.43049,1.25888 c -0.67691,0.33832 -1.50825,0.58491 -2.4613,0.58491 -2.06048,0 -3.19761,-1.07481 -3.19761,-3.74986 z" />
    <path
       inkscape:connector-curvature="0"
       id="path305"
       style="fill:#6d6e71;fill-opacity:1;fill-rule:nonzero;stroke:none;stroke-width:2.96899819"
       d="m 177.40469,131.45785 c 0,-2.73741 -0.76898,-5.32038 -3.38466,-5.32038 -2.36629,0 -3.65781,2.06042 -3.81219,5.32038 z m -3.38466,-6.67427 c 3.50639,0 4.9226,2.92146 4.9226,6.49021 0,0.52264 -0.0295,0.98274 -0.092,1.44588 h -8.64275 c 0.12472,3.32232 1.13712,5.50452 4.18331,5.50452 1.41325,0 2.64538,-0.4006 3.84486,-0.98569 l 0.55226,1.23211 c -1.16978,0.58155 -2.64538,1.13718 -4.45943,1.13718 -3.47373,0 -5.6886,-2.21485 -5.6886,-7.2889 0,-4.86027 1.99813,-7.53531 5.37982,-7.53531" />
    <path
       inkscape:connector-curvature="0"
       id="path309"
       style="fill:#6d6e71;fill-opacity:1;fill-rule:nonzero;stroke:none;stroke-width:2.96899819"
       d="m 182.21594,125.09202 h 1.25886 l 0.15435,1.59737 c 1.16978,-1.19651 2.43161,-1.90615 3.99924,-1.90615 0.43048,0 0.95305,0.0589 1.29152,0.12456 l -0.18406,1.47567 c -0.43048,-0.0917 -0.83134,-0.12456 -1.19948,-0.12456 -1.50825,0 -2.82946,0.67665 -3.7825,1.75467 v 11.28812 h -1.53794 z" />
    <path
       inkscape:connector-curvature="0"
       id="path313"
       style="fill:#6d6e71;fill-opacity:1;fill-rule:nonzero;stroke:none;stroke-width:2.96899819"
       d="m 191.2705,125.09202 h 1.25886 l 0.12473,1.3836 c 1.10743,-0.79868 2.61272,-1.69238 4.48912,-1.69238 2.30692,0 4.15067,1.26182 4.15067,4.52178 v 9.99668 h -1.53497 v -9.81254 c 0,-2.4287 -1.1401,-3.35203 -2.79977,-3.35203 -1.50528,0 -3.07589,0.79868 -4.15066,1.56766 v 11.59691 h -1.53794 z" />
    <path
       inkscape:connector-curvature="0"
       id="path317"
       style="fill:#6d6e71;fill-opacity:1;fill-rule:nonzero;stroke:none;stroke-width:2.96899819"
       d="m 209.2086,138.28453 c 1.29151,0 2.73742,-0.55209 3.87454,-1.50832 v -4.30498 c -1.07478,-0.12204 -2.3366,-0.21377 -3.07588,-0.21377 -2.11987,0 -3.8122,0.67665 -3.8122,2.98383 0,1.99814 1.22917,3.04324 3.01354,3.04324 m 0.73632,-7.3186 c 0.86102,0 2.06346,0.0917 3.13824,0.24659 v -1.81408 c 0,-2.64534 -1.44293,-3.25996 -3.25996,-3.25996 -1.32121,0 -2.7968,0.33832 -3.84486,0.67665 l -0.36812,-1.29153 c 1.16978,-0.37115 2.73742,-0.73893 4.30505,-0.73893 2.4613,0 4.70586,0.92341 4.70586,4.4595 v 10.05601 h -1.29156 l -0.1217,-1.25887 c -1.16978,0.92038 -2.58599,1.56463 -4.21597,1.56463 -2.48803,0 -4.3674,-1.53795 -4.3674,-4.33469 0,-3.0759 2.21487,-4.30507 5.32044,-4.30507" />
    <path
       inkscape:connector-curvature="0"
       id="path321"
       style="fill:#6d6e71;fill-opacity:1;fill-rule:nonzero;stroke:none;stroke-width:2.96899819"
       d="m 219.063,126.353 h -1.8764 v -1.07776 l 1.93875,-0.12203 0.15141,-4.30507 h 1.32417 v 4.24271 h 3.87455 v 1.26182 h -3.87455 v 9.3791 c 0,1.62994 0.39783,2.52364 1.69233,2.52364 0.58197,0 1.22916,-0.15401 1.99814,-0.49318 l 0.43048,1.25888 c -0.6769,0.33832 -1.50825,0.58491 -2.4613,0.58491 -2.06049,0 -3.19762,-1.07481 -3.19762,-3.74986 z" />
    <path
       d="m 227.16362,125.09202 h 1.53794 v 14.20665 h -1.53794 z m 0,-5.59651 h 1.53794 v 2.39892 h -1.53794 z"
       style="fill:#6d6e71;fill-opacity:1;fill-rule:nonzero;stroke:none;stroke-width:2.96899819"
       id="path323"
       inkscape:connector-curvature="0" />
    <path
       inkscape:connector-curvature="0"
       id="path327"
       style="fill:#6d6e71;fill-opacity:1;fill-rule:nonzero;stroke:none;stroke-width:2.96899819"
       d="m 237.81638,138.25449 c 3.16793,0 4.18332,-2.55335 4.18332,-6.05973 0,-3.50639 -1.01539,-6.0567 -4.18332,-6.0567 -3.16792,0 -4.18332,2.55031 -4.18332,6.0567 0,3.50638 1.0154,6.05973 4.18332,6.05973 m 0,-13.47032 c 4.15362,0 5.75096,2.95412 5.75096,7.41059 0,4.42979 -1.59734,7.41067 -5.75096,7.41067 -4.12097,0 -5.75095,-2.98088 -5.75095,-7.41067 0,-4.45647 1.62998,-7.41059 5.75095,-7.41059" />
    <path
       inkscape:connector-curvature="0"
       id="path331"
       style="fill:#6d6e71;fill-opacity:1;fill-rule:nonzero;stroke:none;stroke-width:2.96899819"
       d="m 246.93298,125.09202 h 1.26184 l 0.12178,1.3836 c 1.10743,-0.79868 2.61271,-1.69238 4.49208,-1.69238 2.30396,0 4.15067,1.26182 4.15067,4.52178 v 9.99668 h -1.53795 v -9.81254 c 0,-2.4287 -1.13711,-3.35203 -2.79976,-3.35203 -1.50528,0 -3.07588,0.79868 -4.15066,1.56766 v 11.59691 h -1.53795 z" />
    <path
       inkscape:connector-curvature="0"
       id="path335"
       style="fill:#6d6e71;fill-opacity:1;fill-rule:nonzero;stroke:none;stroke-width:2.96899819"
       d="m 264.38268,138.28453 c 1.29151,0 2.73743,-0.55209 3.87454,-1.50832 v -4.30498 c -1.07477,-0.12204 -2.33659,-0.21377 -3.07291,-0.21377 -2.12283,0 -3.81516,0.67665 -3.81516,2.98383 0,1.99814 1.23212,3.04324 3.01353,3.04324 m 0.73926,-7.3186 c 0.86102,0 2.0605,0.0917 3.13526,0.24659 v -1.81408 c 0,-2.64534 -1.44589,-3.25996 -3.25996,-3.25996 -1.32119,0 -2.7968,0.33832 -3.84188,0.67665 l -0.37115,-1.29153 c 1.16981,-0.37115 2.73744,-0.73893 4.30507,-0.73893 2.46129,0 4.70586,0.92341 4.70586,4.4595 v 10.05601 h -1.29149 l -0.12178,-1.25887 c -1.16978,0.92038 -2.58599,1.56463 -4.21301,1.56463 -2.49098,0 -4.36739,-1.53795 -4.36739,-4.33469 0,-3.0759 2.21488,-4.30507 5.32044,-4.30507" />
    <path
       d="m 274.57555,119.49551 h 1.53795 v 19.80619 h -1.53795 z"
       style="fill:#6d6e71;fill-opacity:1;fill-rule:nonzero;stroke:none;stroke-width:2.96899819"
       id="path345"
       inkscape:connector-curvature="0" />
    <g
       transform="matrix(2.9689985,0,0,-2.9689985,-2715.4939,301.52477)"
       id="g351"
       style="fill:#6d6e71;fill-opacity:1">
      <g
         id="g353"
         clip-path="url(#clipPath357)"
         style="fill:#6d6e71;fill-opacity:1">
        <g
           id="g359"
           transform="translate(924.0795,67.7172)"
           style="fill:#6d6e71;fill-opacity:1">
          <path
             d="M 0,0 H 2.564 V -0.454 H 0.517 V -1.963 H 2.236 V -2.41 H 0.517 V -4.045 H 2.564 V -4.499 H 0 Z"
             style="fill:#6d6e71;fill-opacity:1;fill-rule:nonzero;stroke:none"
             id="path361"
             inkscape:connector-curvature="0" />
        </g>
        <g
           id="g363"
           transform="translate(929.7691,65.5443)"
           style="fill:#6d6e71;fill-opacity:1">
          <path
             d="m 0,0 c 0.72,0 1.209,0.175 1.209,0.901 0,0.706 -0.461,0.881 -1.174,0.881 -0.21,0 -0.496,-0.014 -0.755,-0.035 V 0.035 C -0.454,0.007 -0.161,0 0,0 m -1.237,2.145 c 0.398,0.049 0.874,0.098 1.272,0.098 0.971,0 1.698,-0.294 1.698,-1.328 0,-0.782 -0.433,-1.145 -1.041,-1.278 0.321,-0.629 0.726,-1.279 1.16,-1.949 L 1.844,-2.327 h -0.6 c -0.399,0.622 -0.776,1.272 -1.104,1.894 -0.363,0 -0.601,0.014 -0.86,0.042 v -1.936 h -0.517 z"
             style="fill:#6d6e71;fill-opacity:1;fill-rule:nonzero;stroke:none"
             id="path365"
             inkscape:connector-curvature="0" />
        </g>
        <g
           id="g367"
           transform="translate(935.4318,64.7898)"
           style="fill:#6d6e71;fill-opacity:1">
          <path
             d="M 0,0 C -0.252,0.831 -0.531,1.663 -0.824,2.466 H -0.852 C -1.146,1.663 -1.425,0.831 -1.684,0 Z m -1.167,2.927 h 0.671 C -0.056,1.83 0.559,-0.07 0.971,-1.572 H 0.447 l -0.321,1.125 h -1.929 l -0.321,-1.125 h -0.517 c 0.419,1.502 1.034,3.402 1.474,4.499"
             style="fill:#6d6e71;fill-opacity:1;fill-rule:nonzero;stroke:none"
             id="path369"
             inkscape:connector-curvature="0" />
        </g>
        <g
           id="g371"
           transform="translate(937.9224,67.7172)"
           style="fill:#6d6e71;fill-opacity:1">
          <path
             d="M 0,0 H 0.517 V -4.045 H 2.536 V -4.499 H 0 Z"
             style="fill:#6d6e71;fill-opacity:1;fill-rule:nonzero;stroke:none"
             id="path373"
             inkscape:connector-curvature="0" />
        </g>
        <g
           id="g375"
           transform="translate(943.0184,63.609)"
           style="fill:#6d6e71;fill-opacity:1">
          <path
             d="m 0,0 c 1.153,0 1.698,0.44 1.698,1.837 0,1.384 -0.538,1.887 -1.649,1.887 -0.245,0 -0.531,-0.028 -0.706,-0.049 V 0.028 C -0.426,0.007 -0.168,0 0,0 m -1.174,4.059 c 0.349,0.063 0.825,0.119 1.244,0.119 1.432,0 2.152,-0.706 2.152,-2.341 0,-1.614 -0.699,-2.291 -2.208,-2.291 -0.321,0 -0.824,0.028 -1.188,0.077 z"
             style="fill:#6d6e71;fill-opacity:1;fill-rule:nonzero;stroke:none"
             id="path377"
             inkscape:connector-curvature="0" />
        </g>
        <g
           id="g379"
           transform="translate(949.1971,65.5443)"
           style="fill:#6d6e71;fill-opacity:1">
          <path
             d="m 0,0 c 0.72,0 1.208,0.175 1.208,0.901 0,0.706 -0.46,0.881 -1.173,0.881 -0.21,0 -0.496,-0.014 -0.755,-0.035 V 0.035 C -0.454,0.007 -0.161,0 0,0 m -1.237,2.145 c 0.398,0.049 0.874,0.098 1.272,0.098 0.971,0 1.698,-0.294 1.698,-1.328 0,-0.782 -0.433,-1.145 -1.041,-1.278 0.321,-0.629 0.726,-1.279 1.16,-1.949 L 1.844,-2.327 h -0.6 c -0.399,0.622 -0.776,1.272 -1.104,1.894 -0.363,0 -0.601,0.014 -0.86,0.042 v -1.936 h -0.517 z"
             style="fill:#6d6e71;fill-opacity:1;fill-rule:nonzero;stroke:none"
             id="path381"
             inkscape:connector-curvature="0" />
        </g>
        <path
           d="m 951.325,63.819 h 0.552 v -0.601 h -0.552 z"
           style="fill:#6d6e71;fill-opacity:1;fill-rule:nonzero;stroke:none"
           id="path383"
           inkscape:connector-curvature="0" />
      </g>
    </g>
    <path
       id="path393"
       style="fill:#6d6e71;fill-opacity:1;fill-rule:nonzero;stroke:none;stroke-width:2.96899819"
       d="m 20.996868,107.65513 h -2.500403 v -1.34497 h 3.990332 m -9.875185,0.77933 c 0,-3.85675 1.347924,-6.82576 6.015193,-6.82576 1.181657,0 2.407851,0.18683 3.444036,0.41575 l -0.249367,1.32713 c -0.869918,-0.18684 -2.155496,-0.39219 -3.215423,-0.39219 -3.607333,0 -4.438655,2.3841 -4.438655,5.4956 0,2.84135 0.685825,5.5817 4.106128,5.5817 0.893668,0 1.867498,-0.18684 2.678032,-0.49907 v -4.71964 l 1.534971,-1.15949 v 6.72831 c -1.244011,0.62363 -2.820549,0.99764 -4.296145,0.99764 -4.23082,0 -5.578745,-3.09072 -5.578745,-6.95041"
       inkscape:connector-curvature="0"
       sodipodi:nodetypes="cccccsccsssccccsc" />
    <g
       id="g395"
       transform="matrix(2.9689985,0,0,-2.9689985,85.335366,63.761426)"
       style="fill:#0060a3;fill-opacity:1">
      <path
         d="m 0,0 c 0.018,-0.009 15.693,7.288 32.487,-2.284 0,0 15.259,-9.918 25.784,-5.199 l -2.37,-1.922 c 0.008,-0.005 -7.956,-3.855 -23.928,4.364 -10e-4,0 -12.926,7.882 -28.392,1.591 z"
         style="fill:#0060a3;fill-opacity:1;fill-rule:nonzero;stroke:none"
         id="path397"
         inkscape:connector-curvature="0" />
    </g>
    <g
       id="g407"
       transform="matrix(2.9689985,0,0,-2.9689985,101.41116,80.202871)"
       style="fill:#0b82c6;fill-opacity:1">
      <path
         d="m 0,0 c 0.022,-0.009 13.509,6.154 27.929,-1.832 0,0 11.71,-6.658 21.427,-3.236 l -1.845,-1.58 c 0,0 -7.175,-3.07 -20.524,2.826 0,0 -11.553,6.038 -24.119,1.129 z"
         style="fill:#0b82c6;fill-opacity:1;fill-rule:nonzero;stroke:none"
         id="path409"
         inkscape:connector-curvature="0" />
    </g>
    <g
       id="g411"
       transform="matrix(2.9689985,0,0,-2.9689985,116.0173,94.644996)"
       style="fill:#20b2e7;fill-opacity:0.99215686">
      <path
         d="m 0,0 c -0.032,-0.001 9.768,5.116 22.778,-0.854 0.022,-0.002 10.786,-5.47 18.761,-1.951 l -1.504,-1.378 c 0.051,-0.015 -5.483,-3.174 -17.327,1.637 0.01,0.002 -10.396,5.278 -20.654,0.6 z"
         style="fill:#20b2e7;fill-opacity:0.99215686;fill-rule:nonzero;stroke:none"
         id="path413"
         inkscape:connector-curvature="0" />
    </g>
    <g
       id="g415"
       transform="matrix(2.9689985,0,0,-2.9689985,127.2027,105.06677)"
       style="fill:#6fcaf2;fill-opacity:1">
      <path
         d="m 0,0 c 0.034,-0.006 7.924,3.968 18.097,-0.181 0,0 10.16,-4.848 16.83,-1.755 l -1.109,-0.993 c -10e-4,-0.001 0,-0.002 -10e-4,-0.003 C 33.774,-3.008 28.102,-5.69 17.847,-1.497 17.832,-1.558 9.494,1.93 1.518,-1.415 Z"
         style="fill:#6fcaf2;fill-opacity:1;fill-rule:nonzero;stroke:none"
         id="path417"
         inkscape:connector-curvature="0" />
    </g>
    <g
       id="g419"
       transform="matrix(2.9689985,0,0,-2.9689985,177.16293,154.60453)"
       style="fill:#6d6e71;fill-opacity:1">
      <path
         d="m 0,0 h 0.855 l 0.104,-1.084 c 0.792,0.813 1.646,1.293 2.709,1.293 0.292,0 0.057,0 0.292,0 L 3.856,-0.792 H 3.605 C 2.584,-0.792 1.688,-1.25 1.042,-1.98 V -9.629 H 0 Z"
         style="fill:#6d6e71;fill-opacity:1;fill-rule:nonzero;stroke:none"
         id="path421"
         inkscape:connector-curvature="0" />
    </g>
    <g
       id="g423"
       transform="matrix(2.9689985,0,0,-2.9689985,177.16293,154.60453)"
       style="fill:#6d6e71;fill-opacity:1">
      <path
         d="m 0,0 h 0.855 l 0.104,-1.084 c 0.792,0.813 1.646,1.293 2.709,1.293 0.292,0 0.057,0 0.292,0 L 3.856,-0.792 H 3.605 C 2.584,-0.792 1.688,-1.25 1.042,-1.98 V -9.629 H 0 Z"
         style="fill:#6d6e71;fill-opacity:1;stroke:#ffffff;stroke-width:0.092;stroke-linecap:butt;stroke-linejoin:miter;stroke-miterlimit:10;stroke-dasharray:none;stroke-opacity:1"
         id="path425"
         inkscape:connector-curvature="0" />
    </g>
  </g>
</svg>
