<svg xmlns="http://www.w3.org/2000/svg" viewBox="0 0 1200 630" width="1200" height="630">
  <!-- White background -->
  <rect width="1200" height="630" fill="#ffffff"/>

  <!-- Light blue gradient right side -->
  <radialGradient id="glowRight" cx="85%" cy="40%" r="55%">
    <stop offset="0%" stop-color="#EEF4FF" stop-opacity="1"/>
    <stop offset="100%" stop-color="#ffffff" stop-opacity="0"/>
  </radialGradient>
  <rect width="1200" height="630" fill="url(#glowRight)"/>

  <!-- Green accent bar left edge -->
  <rect x="0" y="0" width="8" height="630" fill="#00D26A"/>

  <!-- BALM wordmark in blue -->
  <text x="104" y="228" font-family="Inter, Arial, sans-serif" font-weight="900" font-size="108" fill="#0047BA" letter-spacing="-2">BALM</text>

  <!-- Green swoosh line under BALM -->
  <path d="M 104 248 C 180 260, 340 255, 458 245" stroke="#00D26A" stroke-width="4.5" fill="none" stroke-linecap="round"/>

  <!-- Green bar with OF GILEAD LOGISTICS -->
  <rect x="104" y="255" width="478" height="34" rx="4" fill="#00D26A"/>
  <text x="116" y="279" font-family="Inter, Arial, sans-serif" font-weight="800" font-size="19" fill="#ffffff" letter-spacing="2.5">OF GILEAD LOGISTICS</text>

  <!-- Tagline -->
  <text x="104" y="350" font-family="Inter, Arial, sans-serif" font-weight="500" font-size="26" fill="#5A6A80">Fast. Reliable. Same-Day Cargo Van Courier.</text>

  <!-- Trust chips -->
  <rect x="104" y="390" width="168" height="34" rx="17" fill="#EEF4FF" stroke="#C8DAF5" stroke-width="1.5"/>
  <text x="188" y="412" text-anchor="middle" font-family="Inter, Arial, sans-serif" font-weight="700" font-size="14" fill="#0047BA">&#10003; Fully Insured</text>

  <rect x="284" y="390" width="196" height="34" rx="17" fill="#EEF4FF" stroke="#C8DAF5" stroke-width="1.5"/>
  <text x="382" y="412" text-anchor="middle" font-family="Inter, Arial, sans-serif" font-weight="700" font-size="14" fill="#0047BA">&#10003; Same-Day Available</text>

  <rect x="492" y="390" width="202" height="34" rx="17" fill="#F0FFF8" stroke="#A0E8C4" stroke-width="1.5"/>
  <text x="593" y="412" text-anchor="middle" font-family="Inter, Arial, sans-serif" font-weight="700" font-size="14" fill="#00A855">&#10003; Michigan &amp; Midwest</text>

  <!-- Service area text -->
  <text x="104" y="468" font-family="Inter, Arial, sans-serif" font-weight="600" font-size="18" fill="#5A6A80">Serving Grand Rapids &#183; Kalamazoo &#183; 200-Mile Radius</text>

  <!-- Mini map — light theme -->
  <g transform="translate(730, 55)">
    <rect width="430" height="520" rx="14" fill="#EEF4FF" stroke="#C8DAF5" stroke-width="1.5"/>

    <polygon points="35,20 175,20 178,38 170,118 135,122 35,122" fill="#C8DAF5" stroke="#93B8E8" stroke-width="1"/>
    <polygon points="35,122 135,122 142,124 145,196 35,196" fill="#C8DAF5" stroke="#93B8E8" stroke-width="1"/>
    <polygon points="35,196 145,196 148,202 152,260 35,262" fill="#C8DAF5" stroke="#93B8E8" stroke-width="1"/>
    <polygon points="172,22 222,19 236,28 244,52 244,70 234,112 213,128 185,130 176,120 178,70 178,38" fill="#C8DAF5" stroke="#93B8E8" stroke-width="1"/>
    <polygon points="150,196 212,193 215,202 217,267 213,273 185,275 150,273 148,250 148,210" fill="#C8DAF5" stroke="#93B8E8" stroke-width="1"/>
    <polygon points="212,193 258,191 261,199 263,267 217,270 215,240 215,202" fill="#C8DAF5" stroke="#93B8E8" stroke-width="1"/>
    <polygon points="185,275 263,270 316,272 322,289 304,298 185,298" fill="#C8DAF5" stroke="#93B8E8" stroke-width="1"/>
    <polygon points="261,191 322,187 334,196 336,247 322,267 263,265 261,235 261,199" fill="#C8DAF5" stroke="#93B8E8" stroke-width="1"/>

    <ellipse cx="245" cy="156" rx="18" ry="44" fill="#A8CBE8" stroke="#80AACC" stroke-width="1" opacity="0.8"/>
    <ellipse cx="340" cy="176" rx="28" ry="9" fill="#A8CBE8" stroke="#80AACC" stroke-width="1" opacity="0.8"/>
    <ellipse cx="340" cy="127" rx="16" ry="35" fill="#A8CBE8" stroke="#80AACC" stroke-width="1" opacity="0.8"/>
    <ellipse cx="214" cy="50" rx="70" ry="22" fill="#A8CBE8" stroke="#80AACC" stroke-width="1" opacity="0.8"/>

    <polygon points="170,76 270,70 290,79 292,95 283,103 245,108 207,107 180,102 167,92" fill="#0047BA" stroke="#00D26A" stroke-width="1.8" opacity="0.95"/>
    <polygon points="261,191 264,187 270,178 279,168 290,164 295,157 309,147 319,140 314,134 304,140 295,151 288,157 279,163 274,170 269,165 264,156 263,149 264,140 262,135 259,111 251,107 243,108 234,111 227,118 222,125 219,133 219,141 222,155 224,170 226,180 227,191" fill="#0047BA" stroke="#00D26A" stroke-width="1.8" opacity="0.95"/>

    <circle cx="232" cy="164" r="5" fill="#00D26A" stroke="white" stroke-width="1.5"/>
    <text x="220" y="158" fill="#0D1B2A" font-size="8" font-family="Inter,sans-serif" font-weight="700" text-anchor="end">Grand Rapids</text>
    <circle cx="238" cy="177" r="5" fill="#00D26A" stroke="white" stroke-width="1.5"/>
    <text x="225" y="191" fill="#0D1B2A" font-size="8" font-family="Inter,sans-serif" font-weight="700" text-anchor="end">Kalamazoo</text>
    <text x="245" y="158" text-anchor="middle" fill="#ffffff" font-size="12" font-family="Inter,sans-serif" font-weight="800">MI</text>

    <rect x="108" y="492" width="214" height="20" rx="4" fill="#0047BA"/>
    <text x="215" y="506" text-anchor="middle" fill="#ffffff" font-size="9" font-family="Inter,sans-serif" font-weight="700" letter-spacing="0.5">&#11044; PRIMARY COVERAGE AREA</text>

    <text x="95"  y="74"  text-anchor="middle" fill="#4A6A9A" font-size="10" font-family="Inter,sans-serif" font-weight="700">MN</text>
    <text x="88"  y="163" text-anchor="middle" fill="#4A6A9A" font-size="10" font-family="Inter,sans-serif" font-weight="700">IA</text>
    <text x="91"  y="233" text-anchor="middle" fill="#4A6A9A" font-size="10" font-family="Inter,sans-serif" font-weight="700">MO</text>
    <text x="207" y="84"  text-anchor="middle" fill="#4A6A9A" font-size="10" font-family="Inter,sans-serif" font-weight="700">WI</text>
    <text x="183" y="238" text-anchor="middle" fill="#4A6A9A" font-size="10" font-family="Inter,sans-serif" font-weight="700">IL</text>
    <text x="238" y="238" text-anchor="middle" fill="#4A6A9A" font-size="10" font-family="Inter,sans-serif" font-weight="700">IN</text>
    <text x="250" y="288" text-anchor="middle" fill="#4A6A9A" font-size="10" font-family="Inter,sans-serif" font-weight="700">KY</text>
    <text x="298" y="232" text-anchor="middle" fill="#4A6A9A" font-size="10" font-family="Inter,sans-serif" font-weight="700">OH</text>
  </g>

  <!-- Domain -->
  <text x="104" y="572" font-family="Inter, Arial, sans-serif" font-weight="500" font-size="18" fill="#B0BCC8">balmofgileadlogistics.com</text>

  <!-- Bottom accent bars -->
  <rect x="0" y="618" width="1200" height="12" fill="#00D26A"/>
  <rect x="0" y="618" width="400" height="12" fill="#0047BA"/>
</svg>
